G04*
G04 #@! TF.GenerationSoftware,Altium Limited,Altium Designer,20.0.10 (225)*
G04*
G04 Layer_Color=128*
%FSLAX25Y25*%
%MOIN*%
G70*
G01*
G75*
%ADD32C,0.00200*%
D32*
X14370Y32283D02*
X18701D01*
X16535Y30118D02*
Y34449D01*
X14370Y12598D02*
X18701D01*
X16535Y10433D02*
Y14764D01*
X49803Y16535D02*
X54134D01*
X51968Y14370D02*
Y18701D01*
X69488Y16535D02*
X73819D01*
X71653Y14370D02*
Y18701D01*
X76693Y65512D02*
X79213D01*
X77953Y64252D02*
Y66772D01*
X76693Y55512D02*
X79213D01*
X77953Y54252D02*
Y56772D01*
X76693Y45512D02*
X79213D01*
X77953Y44252D02*
Y46772D01*
X143642Y83465D02*
X146122D01*
X144882Y82224D02*
Y84705D01*
X68839Y83465D02*
X71319D01*
X70079Y82224D02*
Y84705D01*
X68445Y97638D02*
X70925D01*
X69685Y96398D02*
Y98878D01*
X143248Y97638D02*
X145728D01*
X144488Y96398D02*
Y98878D01*
X70846Y111811D02*
X74508D01*
X72677Y109980D02*
Y113642D01*
X80847Y111811D02*
X84508D01*
X82677Y109980D02*
Y113642D01*
X90847Y111811D02*
X94508D01*
X92677Y109980D02*
Y113642D01*
X128504Y119685D02*
X131575D01*
X130039Y118150D02*
Y121221D01*
X138504Y119685D02*
X141575D01*
X140039Y118150D02*
Y121221D01*
X57028Y38583D02*
X59508D01*
X58268Y37343D02*
Y39823D01*
X57028Y113386D02*
X59508D01*
X58268Y112146D02*
Y114626D01*
X40098Y113386D02*
X42579D01*
X41339Y112146D02*
Y114626D01*
X40098Y38583D02*
X42579D01*
X41339Y37343D02*
Y39823D01*
X58661Y125197D02*
X61417D01*
X60039Y123819D02*
Y126575D01*
X38583Y125197D02*
X41339D01*
X39961Y123819D02*
Y126575D01*
X48622Y125197D02*
X51378D01*
X50000Y123819D02*
Y126575D01*
X111409Y165748D02*
X116150D01*
X113779Y163378D02*
Y168118D01*
X111409Y124409D02*
X116150D01*
X113779Y122039D02*
Y126779D01*
X96449Y124409D02*
X101189D01*
X98819Y122039D02*
Y126779D01*
X96449Y165748D02*
X101189D01*
X98819Y163378D02*
Y168118D01*
X82276Y165748D02*
X87016D01*
X84646Y163378D02*
Y168118D01*
X82276Y124409D02*
X87016D01*
X84646Y122039D02*
Y126779D01*
X68890Y124803D02*
X73630D01*
X71260Y122433D02*
Y127173D01*
X68890Y166142D02*
X73630D01*
X71260Y163772D02*
Y168512D01*
M02*
