G04*
G04 #@! TF.GenerationSoftware,Altium Limited,Altium Designer,20.0.10 (225)*
G04*
G04 Layer_Physical_Order=1*
G04 Layer_Color=255*
%FSLAX25Y25*%
%MOIN*%
G70*
G01*
G75*
%ADD23C,0.01100*%
%ADD24C,0.06929*%
%ADD25C,0.04031*%
%ADD26C,0.03969*%
%ADD27C,0.05858*%
%ADD28C,0.04913*%
%ADD29C,0.04409*%
%ADD30O,0.07583X0.07584*%
G36*
X89764Y169291D02*
Y162992D01*
X88189Y161417D01*
X67716D01*
X66535Y162598D01*
X66535Y169291D01*
X67716Y170472D01*
X88583D01*
X89764Y169291D01*
D02*
G37*
G36*
X119291Y168898D02*
Y162205D01*
X118110Y161024D01*
X95669Y161024D01*
X94095Y162598D01*
Y168898D01*
X95669Y170472D01*
X117717D01*
X119291Y168898D01*
D02*
G37*
G36*
X150000Y169685D02*
X150000Y2756D01*
X148819Y1575D01*
X2362D01*
X1575Y2362D01*
X1575Y170473D01*
X2362Y171260D01*
X66499D01*
X66706Y170760D01*
X65887Y169940D01*
X65688Y169642D01*
X65618Y169291D01*
X65618Y162598D01*
X65688Y162247D01*
X65887Y161950D01*
X67068Y160768D01*
X67365Y160570D01*
X67716Y160500D01*
X88189D01*
X88540Y160570D01*
X88838Y160768D01*
X90413Y162343D01*
X90611Y162641D01*
X90681Y162992D01*
Y169291D01*
X90611Y169642D01*
X90413Y169940D01*
X89593Y170760D01*
X89800Y171260D01*
X94452D01*
X94659Y170760D01*
X93446Y169546D01*
X93247Y169249D01*
X93177Y168898D01*
Y162598D01*
X93247Y162247D01*
X93446Y161950D01*
X95020Y160375D01*
X95318Y160176D01*
X95669Y160106D01*
X118110Y160106D01*
X118461Y160176D01*
X118759Y160375D01*
X119940Y161556D01*
X120139Y161854D01*
X120209Y162205D01*
Y168898D01*
X120139Y169249D01*
X119940Y169546D01*
X118727Y170760D01*
X118934Y171260D01*
X148425D01*
X150000Y169685D01*
D02*
G37*
%LPC*%
G36*
X50750Y128331D02*
Y125947D01*
X53134D01*
X53122Y126033D01*
X52799Y126813D01*
X52286Y127482D01*
X51616Y127996D01*
X50837Y128319D01*
X50750Y128331D01*
D02*
G37*
G36*
X49250D02*
X49163Y128319D01*
X48384Y127996D01*
X47714Y127482D01*
X47201Y126813D01*
X46878Y126033D01*
X46866Y125947D01*
X49250D01*
Y128331D01*
D02*
G37*
G36*
X114530Y129144D02*
Y125159D01*
X118514D01*
X118447Y125661D01*
X117965Y126827D01*
X117197Y127827D01*
X116196Y128595D01*
X115030Y129078D01*
X114530Y129144D01*
D02*
G37*
G36*
X113030D02*
X112529Y129078D01*
X111363Y128595D01*
X110362Y127827D01*
X109594Y126827D01*
X109111Y125661D01*
X109046Y125159D01*
X113030D01*
Y129144D01*
D02*
G37*
G36*
X53134Y124447D02*
X50750D01*
Y122063D01*
X50837Y122075D01*
X51616Y122397D01*
X52286Y122911D01*
X52799Y123581D01*
X53122Y124360D01*
X53134Y124447D01*
D02*
G37*
G36*
X49250D02*
X46866D01*
X46878Y124360D01*
X47201Y123581D01*
X47714Y122911D01*
X48384Y122397D01*
X49163Y122075D01*
X49250Y122063D01*
Y124447D01*
D02*
G37*
G36*
X130789Y123073D02*
Y120435D01*
X133427D01*
X133407Y120587D01*
X133059Y121428D01*
X132505Y122150D01*
X131783Y122704D01*
X130942Y123053D01*
X130789Y123073D01*
D02*
G37*
G36*
X129289D02*
X129137Y123053D01*
X128296Y122704D01*
X127574Y122150D01*
X127020Y121428D01*
X126672Y120587D01*
X126652Y120435D01*
X129289D01*
Y123073D01*
D02*
G37*
G36*
X71260Y129536D02*
X70035Y129375D01*
X68894Y128902D01*
X67914Y128150D01*
X67162Y127170D01*
X66689Y126029D01*
X66528Y124804D01*
Y124802D01*
X66689Y123578D01*
X67162Y122436D01*
X67914Y121457D01*
X68894Y120704D01*
X70035Y120232D01*
X71260Y120071D01*
X72484Y120232D01*
X73626Y120704D01*
X74606Y121457D01*
X75358Y122436D01*
X75830Y123578D01*
X75992Y124802D01*
Y124804D01*
X75830Y126029D01*
X75358Y127170D01*
X74606Y128150D01*
X73626Y128902D01*
X72484Y129375D01*
X71260Y129536D01*
D02*
G37*
G36*
X113030Y123659D02*
X109046D01*
X109111Y123158D01*
X109594Y121992D01*
X110362Y120992D01*
X111363Y120223D01*
X112529Y119741D01*
X113030Y119675D01*
Y123659D01*
D02*
G37*
G36*
X118514D02*
X114530D01*
Y119675D01*
X115030Y119741D01*
X116196Y120223D01*
X117197Y120992D01*
X117965Y121992D01*
X118447Y123158D01*
X118514Y123659D01*
D02*
G37*
G36*
X102362Y130445D02*
X81496D01*
X81145Y130375D01*
X80847Y130176D01*
X78879Y128208D01*
X78680Y127910D01*
X78610Y127559D01*
Y121653D01*
X78680Y121302D01*
X78879Y121005D01*
X80847Y119036D01*
X81145Y118837D01*
X81496Y118767D01*
X102362D01*
X102713Y118837D01*
X103011Y119036D01*
X104586Y120611D01*
X104785Y120909D01*
X104855Y121260D01*
Y127953D01*
X104785Y128304D01*
X104586Y128602D01*
X103011Y130176D01*
X102713Y130375D01*
X102362Y130445D01*
D02*
G37*
G36*
X140039Y123071D02*
X139163Y122955D01*
X138347Y122617D01*
X137645Y122079D01*
X137107Y121378D01*
X136769Y120561D01*
X136654Y119685D01*
X136769Y118809D01*
X137107Y117992D01*
X137645Y117291D01*
X138347Y116753D01*
X139163Y116415D01*
X140039Y116299D01*
X140916Y116415D01*
X141732Y116753D01*
X142433Y117291D01*
X142971Y117992D01*
X143310Y118809D01*
X143425Y119685D01*
X143310Y120561D01*
X142971Y121378D01*
X142433Y122079D01*
X141732Y122617D01*
X140916Y122955D01*
X140039Y123071D01*
D02*
G37*
G36*
X133427Y118935D02*
X130789D01*
Y116297D01*
X130942Y116317D01*
X131783Y116666D01*
X132505Y117220D01*
X133059Y117942D01*
X133407Y118783D01*
X133427Y118935D01*
D02*
G37*
G36*
X129289D02*
X126652D01*
X126672Y118783D01*
X127020Y117942D01*
X127574Y117220D01*
X128296Y116666D01*
X129137Y116317D01*
X129289Y116297D01*
Y118935D01*
D02*
G37*
G36*
X42126Y130052D02*
X37795Y130052D01*
X37444Y129982D01*
X37146Y129783D01*
X35572Y128208D01*
X35373Y127910D01*
X35303Y127559D01*
X35303Y123229D01*
X35373Y122877D01*
X35463Y122742D01*
X35572Y122580D01*
X36090Y122061D01*
Y112598D01*
X36160Y112247D01*
X36359Y111950D01*
X39115Y109194D01*
X39413Y108995D01*
X39764Y108925D01*
X43307D01*
X60236Y108925D01*
X60587Y108995D01*
X60885Y109194D01*
X62460Y110768D01*
X62659Y111066D01*
X62729Y111417D01*
X62729Y115354D01*
X62659Y115706D01*
X62460Y116003D01*
X60885Y117578D01*
X60587Y117777D01*
X60236Y117847D01*
X56299D01*
X55948Y117777D01*
X55650Y117578D01*
X53951Y115878D01*
X45656D01*
X43044Y118490D01*
Y121273D01*
X44350Y122580D01*
X44549Y122877D01*
X44618Y123228D01*
X44618Y127559D01*
X44549Y127910D01*
X44350Y128208D01*
X42775Y129783D01*
X42477Y129982D01*
X42126Y130052D01*
D02*
G37*
G36*
X82677Y115673D02*
X81678Y115542D01*
X80746Y115156D01*
X79946Y114542D01*
X79332Y113742D01*
X78947Y112811D01*
X78815Y111811D01*
X78947Y110811D01*
X79332Y109880D01*
X79946Y109080D01*
X80746Y108466D01*
X81678Y108080D01*
X82677Y107949D01*
X83677Y108080D01*
X84608Y108466D01*
X85408Y109080D01*
X86022Y109880D01*
X86408Y110811D01*
X86539Y111811D01*
X86408Y112811D01*
X86022Y113742D01*
X85408Y114542D01*
X84608Y115156D01*
X83677Y115542D01*
X82677Y115673D01*
D02*
G37*
G36*
X95669Y116272D02*
X89764D01*
X89413Y116202D01*
X89115Y116003D01*
X88327Y115216D01*
X88129Y114918D01*
X88059Y114567D01*
Y109449D01*
X88129Y109098D01*
X88327Y108800D01*
X91199Y105929D01*
Y29510D01*
X79703Y18014D01*
X78559D01*
X76633Y19940D01*
X73132Y23441D01*
Y24016D01*
X73019Y24581D01*
X72699Y25061D01*
X70337Y27423D01*
X69857Y27744D01*
X69291Y27856D01*
X53368D01*
X45012Y36213D01*
Y40157D01*
X44942Y40509D01*
X44743Y40806D01*
X43956Y41594D01*
X43658Y41793D01*
X43307Y41862D01*
X39370D01*
X39019Y41793D01*
X38721Y41594D01*
X37934Y40806D01*
X37735Y40509D01*
X37665Y40157D01*
Y37008D01*
X37735Y36657D01*
X37934Y36359D01*
X39860Y34433D01*
Y26203D01*
X27734Y14077D01*
X23048D01*
X21784Y15341D01*
Y16535D01*
X21714Y16887D01*
X21515Y17184D01*
X21121Y17578D01*
X20824Y17777D01*
X20472Y17847D01*
X12992D01*
X12641Y17777D01*
X12343Y17578D01*
X11556Y16791D01*
X11357Y16493D01*
X11287Y16142D01*
Y8661D01*
X11357Y8310D01*
X11556Y8013D01*
X12343Y7225D01*
X12641Y7026D01*
X12992Y6956D01*
X19685D01*
X20036Y7026D01*
X20334Y7225D01*
X21515Y8406D01*
X21714Y8704D01*
X21784Y9055D01*
Y9856D01*
X23048Y11120D01*
X28346D01*
X28912Y11233D01*
X29392Y11553D01*
X42384Y24545D01*
X42704Y25025D01*
X42817Y25591D01*
Y33334D01*
X43709D01*
X51710Y25333D01*
X52190Y25012D01*
X52756Y24900D01*
X68679D01*
X70175Y23403D01*
Y22920D01*
X66403Y20279D01*
X66347Y20221D01*
X66280Y20176D01*
X66225Y20093D01*
X66155Y20021D01*
X66126Y19946D01*
X66081Y19879D01*
X66062Y19780D01*
X66026Y19687D01*
X66027Y19606D01*
X66012Y19527D01*
Y13386D01*
X66081Y13035D01*
X66280Y12737D01*
X67461Y11556D01*
X67759Y11357D01*
X68110Y11287D01*
X74803D01*
X75154Y11357D01*
X75452Y11556D01*
X78953Y15057D01*
X80315D01*
X80881Y15170D01*
X81360Y15490D01*
X93723Y27852D01*
X94043Y28332D01*
X94156Y28898D01*
Y106244D01*
X97106Y109194D01*
X97109Y109198D01*
X97113Y109201D01*
X97118Y109209D01*
X97126Y109214D01*
X98199Y110333D01*
X102144D01*
X115884Y96592D01*
X116363Y96272D01*
X116929Y96159D01*
X140732D01*
X142658Y94233D01*
X142956Y94034D01*
X143307Y93964D01*
X145669D01*
X146020Y94034D01*
X146318Y94233D01*
X147893Y95808D01*
X148092Y96105D01*
X148162Y96457D01*
Y98819D01*
X148092Y99170D01*
X147893Y99468D01*
X146318Y101043D01*
X146020Y101242D01*
X145669Y101311D01*
X143307D01*
X142956Y101242D01*
X142658Y101043D01*
X140732Y99116D01*
X117542D01*
X103801Y112856D01*
X103322Y113177D01*
X102756Y113289D01*
X99032D01*
X96318Y116003D01*
X96021Y116202D01*
X95669Y116272D01*
D02*
G37*
G36*
X57874Y130052D02*
X57523Y129982D01*
X57225Y129783D01*
X55650Y128208D01*
X55451Y127910D01*
X55382Y127559D01*
Y123228D01*
X55451Y122877D01*
X55650Y122580D01*
X58406Y119824D01*
X58704Y119625D01*
X59055Y119555D01*
X61825D01*
X66405Y114974D01*
Y109843D01*
X66427Y109732D01*
X66433Y109620D01*
X67512Y105301D01*
X65340Y101390D01*
X65323Y101340D01*
X65294Y101296D01*
X65269Y101171D01*
X65230Y101050D01*
X65234Y100997D01*
X65224Y100945D01*
Y95669D01*
X65294Y95318D01*
X65493Y95020D01*
X67461Y93052D01*
X67759Y92853D01*
X68110Y92783D01*
X71653Y92783D01*
X72005Y92853D01*
X72302Y93052D01*
X73877Y94627D01*
X74076Y94924D01*
X74146Y95276D01*
X74146Y102641D01*
X75907Y106893D01*
X77814Y108800D01*
X78013Y109098D01*
X78083Y109449D01*
X78083Y114173D01*
X78013Y114524D01*
X77814Y114822D01*
X75452Y117184D01*
X75154Y117383D01*
X74803Y117453D01*
X70065Y117453D01*
X64697Y122821D01*
Y127559D01*
X64627Y127910D01*
X64428Y128208D01*
X62854Y129783D01*
X62556Y129982D01*
X62205Y130052D01*
X57874Y130052D01*
D02*
G37*
G36*
X144882Y86374D02*
X144129Y86275D01*
X143427Y85984D01*
X142825Y85522D01*
X142362Y84919D01*
X142072Y84218D01*
X141973Y83465D01*
X142072Y82712D01*
X142362Y82010D01*
X142825Y81407D01*
X143427Y80945D01*
X144129Y80655D01*
X144882Y80555D01*
X145635Y80655D01*
X146336Y80945D01*
X146939Y81407D01*
X147401Y82010D01*
X147692Y82712D01*
X147791Y83465D01*
X147692Y84218D01*
X147401Y84919D01*
X146939Y85522D01*
X146336Y85984D01*
X145635Y86275D01*
X144882Y86374D01*
D02*
G37*
G36*
X70079D02*
X69326Y86275D01*
X68624Y85984D01*
X68022Y85522D01*
X67559Y84919D01*
X67269Y84218D01*
X67170Y83465D01*
X67269Y82712D01*
X67559Y82010D01*
X68022Y81407D01*
X68624Y80945D01*
X69326Y80655D01*
X70079Y80555D01*
X70832Y80655D01*
X71533Y80945D01*
X72136Y81407D01*
X72598Y82010D01*
X72889Y82712D01*
X72988Y83465D01*
X72889Y84218D01*
X72598Y84919D01*
X72136Y85522D01*
X71533Y85984D01*
X70832Y86275D01*
X70079Y86374D01*
D02*
G37*
G36*
X78703Y68455D02*
Y66262D01*
X80896D01*
X80891Y66299D01*
X80587Y67033D01*
X80104Y67663D01*
X79474Y68146D01*
X78740Y68450D01*
X78703Y68455D01*
D02*
G37*
G36*
X77203D02*
X77166Y68450D01*
X76432Y68146D01*
X75802Y67663D01*
X75318Y67033D01*
X75015Y66299D01*
X75010Y66262D01*
X77203D01*
Y68455D01*
D02*
G37*
G36*
X80896Y64762D02*
X78703D01*
Y62569D01*
X78740Y62574D01*
X79474Y62878D01*
X80104Y63361D01*
X80587Y63991D01*
X80891Y64724D01*
X80896Y64762D01*
D02*
G37*
G36*
X77203D02*
X75010D01*
X75015Y64724D01*
X75318Y63991D01*
X75802Y63361D01*
X76432Y62878D01*
X77166Y62574D01*
X77203Y62569D01*
Y64762D01*
D02*
G37*
G36*
X78703Y58455D02*
Y56262D01*
X80896D01*
X80891Y56299D01*
X80587Y57033D01*
X80104Y57663D01*
X79474Y58146D01*
X78740Y58450D01*
X78703Y58455D01*
D02*
G37*
G36*
X77203D02*
X77166Y58450D01*
X76432Y58146D01*
X75802Y57663D01*
X75318Y57033D01*
X75015Y56299D01*
X75010Y56262D01*
X77203D01*
Y58455D01*
D02*
G37*
G36*
X80896Y54762D02*
X78703D01*
Y52569D01*
X78740Y52574D01*
X79474Y52878D01*
X80104Y53361D01*
X80587Y53991D01*
X80891Y54725D01*
X80896Y54762D01*
D02*
G37*
G36*
X77203D02*
X75010D01*
X75015Y54725D01*
X75318Y53991D01*
X75802Y53361D01*
X76432Y52878D01*
X77166Y52574D01*
X77203Y52569D01*
Y54762D01*
D02*
G37*
G36*
X79921Y50130D02*
X76378D01*
X76027Y50060D01*
X75729Y49861D01*
X69305Y43437D01*
X56693Y43437D01*
X56342Y43367D01*
X56044Y43169D01*
X53682Y40806D01*
X53483Y40509D01*
X53413Y40157D01*
X53413Y37008D01*
X53483Y36657D01*
X53682Y36359D01*
X55650Y34391D01*
X55948Y34192D01*
X56299Y34122D01*
X60630D01*
X60981Y34192D01*
X61279Y34391D01*
X65341Y38452D01*
X76879D01*
X77018Y38480D01*
X77159Y38496D01*
X77192Y38515D01*
X77230Y38522D01*
X77348Y38601D01*
X77472Y38670D01*
X82089Y42576D01*
X82113Y42606D01*
X82145Y42628D01*
X82224Y42746D01*
X82312Y42856D01*
X82322Y42893D01*
X82344Y42926D01*
X82371Y43064D01*
X82411Y43201D01*
X82406Y43239D01*
X82414Y43277D01*
X82414Y47638D01*
X82344Y47989D01*
X82145Y48287D01*
X80570Y49861D01*
X80272Y50060D01*
X79921Y50130D01*
D02*
G37*
G36*
X17285Y36688D02*
Y33033D01*
X20940D01*
X20885Y33449D01*
X20435Y34535D01*
X19720Y35468D01*
X18787Y36183D01*
X17701Y36633D01*
X17285Y36688D01*
D02*
G37*
G36*
X15785D02*
X15370Y36633D01*
X14284Y36183D01*
X13351Y35468D01*
X12636Y34535D01*
X12186Y33449D01*
X12131Y33033D01*
X15785D01*
Y36688D01*
D02*
G37*
G36*
X20940Y31534D02*
X17285D01*
Y27879D01*
X17701Y27934D01*
X18787Y28384D01*
X19720Y29099D01*
X20435Y30032D01*
X20885Y31118D01*
X20940Y31534D01*
D02*
G37*
G36*
X15785D02*
X12131D01*
X12186Y31118D01*
X12636Y30032D01*
X13351Y29099D01*
X14284Y28384D01*
X15370Y27934D01*
X15785Y27879D01*
Y31534D01*
D02*
G37*
G36*
X52719Y20940D02*
Y17285D01*
X56373D01*
X56318Y17701D01*
X55868Y18787D01*
X55153Y19720D01*
X54220Y20435D01*
X53134Y20885D01*
X52719Y20940D01*
D02*
G37*
G36*
X51218D02*
X50803Y20885D01*
X49717Y20435D01*
X48784Y19720D01*
X48069Y18787D01*
X47619Y17701D01*
X47564Y17285D01*
X51218D01*
Y20940D01*
D02*
G37*
G36*
X56373Y15785D02*
X52719D01*
Y12131D01*
X53134Y12186D01*
X54220Y12636D01*
X55153Y13351D01*
X55868Y14284D01*
X56318Y15370D01*
X56373Y15785D01*
D02*
G37*
G36*
X51218D02*
X47564D01*
X47619Y15370D01*
X48069Y14284D01*
X48784Y13351D01*
X49717Y12636D01*
X50803Y12186D01*
X51218Y12131D01*
Y15785D01*
D02*
G37*
%LPD*%
G36*
X103937Y127953D02*
Y121260D01*
X102362Y119685D01*
X81496D01*
X79528Y121653D01*
Y127559D01*
X81496Y129528D01*
X102362D01*
X103937Y127953D01*
D02*
G37*
G36*
X43701Y127559D02*
X43701Y123228D01*
X42126Y121653D01*
Y118110D01*
X45276Y114961D01*
X54331D01*
X56299Y116929D01*
X60236D01*
X61811Y115354D01*
X61811Y111417D01*
X60236Y109843D01*
X43307Y109843D01*
X39764D01*
X37008Y112598D01*
Y122441D01*
X36220Y123229D01*
X36220Y127559D01*
X37795Y129134D01*
X42126Y129134D01*
X43701Y127559D01*
D02*
G37*
%LPC*%
G36*
X40711Y128331D02*
Y125947D01*
X43094D01*
X43083Y126033D01*
X42760Y126813D01*
X42246Y127482D01*
X41577Y127996D01*
X40797Y128319D01*
X40711Y128331D01*
D02*
G37*
G36*
X39211D02*
X39124Y128319D01*
X38344Y127996D01*
X37675Y127482D01*
X37161Y126813D01*
X36838Y126033D01*
X36827Y125947D01*
X39211D01*
Y128331D01*
D02*
G37*
G36*
X43094Y124447D02*
X40711D01*
Y122063D01*
X40797Y122075D01*
X41577Y122397D01*
X42246Y122911D01*
X42760Y123581D01*
X43083Y124360D01*
X43094Y124447D01*
D02*
G37*
G36*
X39211D02*
X36827D01*
X36838Y124360D01*
X37161Y123581D01*
X37675Y122911D01*
X38344Y122397D01*
X39124Y122075D01*
X39211Y122063D01*
Y124447D01*
D02*
G37*
G36*
X42089Y116297D02*
Y114136D01*
X44250D01*
X44246Y114165D01*
X43945Y114891D01*
X43467Y115514D01*
X42844Y115993D01*
X42118Y116293D01*
X42089Y116297D01*
D02*
G37*
G36*
X59018Y116297D02*
Y114136D01*
X61179D01*
X61175Y114165D01*
X60874Y114891D01*
X60396Y115514D01*
X59773Y115993D01*
X59047Y116293D01*
X59018Y116297D01*
D02*
G37*
G36*
X57518D02*
X57489Y116293D01*
X56763Y115993D01*
X56139Y115514D01*
X55661Y114891D01*
X55360Y114165D01*
X55357Y114136D01*
X57518D01*
Y116297D01*
D02*
G37*
G36*
X40589D02*
X40560Y116293D01*
X39834Y115993D01*
X39210Y115514D01*
X38732Y114891D01*
X38431Y114165D01*
X38427Y114136D01*
X40589D01*
Y116297D01*
D02*
G37*
G36*
X61179Y112636D02*
X59018D01*
Y110475D01*
X59047Y110478D01*
X59773Y110779D01*
X60396Y111257D01*
X60874Y111881D01*
X61175Y112607D01*
X61179Y112636D01*
D02*
G37*
G36*
X57518D02*
X55357D01*
X55360Y112607D01*
X55661Y111881D01*
X56139Y111257D01*
X56763Y110779D01*
X57489Y110478D01*
X57518Y110475D01*
Y112636D01*
D02*
G37*
G36*
X44250D02*
X42089D01*
Y110475D01*
X42118Y110478D01*
X42844Y110779D01*
X43467Y111257D01*
X43945Y111881D01*
X44246Y112607D01*
X44250Y112636D01*
D02*
G37*
G36*
X40589D02*
X38427D01*
X38431Y112607D01*
X38732Y111881D01*
X39210Y111257D01*
X39834Y110779D01*
X40560Y110478D01*
X40589Y110475D01*
Y112636D01*
D02*
G37*
%LPD*%
G36*
X98770Y112253D02*
X96464Y109850D01*
X96457Y109857D01*
Y109843D01*
X92520Y105905D01*
X88976Y109449D01*
Y114567D01*
X89764Y115354D01*
X95669D01*
X98770Y112253D01*
D02*
G37*
G36*
X147244Y98819D02*
Y96457D01*
X145669Y94882D01*
X143307D01*
X140945Y97244D01*
Y98032D01*
X143307Y100394D01*
X145669D01*
X147244Y98819D01*
D02*
G37*
G36*
X44094Y40157D02*
Y34252D01*
X41339Y34252D01*
X43307Y36220D01*
X43307D01*
X41339Y34252D01*
X38583Y37008D01*
Y40157D01*
X39370Y40945D01*
X43307D01*
X44094Y40157D01*
D02*
G37*
G36*
X75984Y19291D02*
X78740Y16535D01*
Y16142D01*
X74803Y12205D01*
X68110D01*
X66929Y13386D01*
Y19527D01*
X72117Y23159D01*
X75984Y19291D01*
D02*
G37*
G36*
X20866Y16535D02*
Y14961D01*
X23228Y12598D01*
X20866Y10236D01*
Y9055D01*
X19685Y7874D01*
X12992D01*
X12205Y8661D01*
Y16142D01*
X12992Y16929D01*
X20472D01*
X20866Y16535D01*
D02*
G37*
G36*
X62205Y129134D02*
X63779Y127559D01*
Y122441D01*
X69685Y116535D01*
X74803Y116535D01*
X77165Y114173D01*
X77165Y109449D01*
X75129Y107413D01*
X73228Y102823D01*
X73228Y95276D01*
X71653Y93701D01*
X68110Y93701D01*
X66142Y95669D01*
Y100945D01*
X68490Y105172D01*
X67323Y109843D01*
Y115354D01*
X62205Y120472D01*
X59055D01*
X56299Y123228D01*
Y127559D01*
X57874Y129134D01*
X62205Y129134D01*
D02*
G37*
%LPC*%
G36*
X60789Y128331D02*
Y125947D01*
X63173D01*
X63162Y126033D01*
X62839Y126813D01*
X62325Y127482D01*
X61656Y127996D01*
X60876Y128319D01*
X60789Y128331D01*
D02*
G37*
G36*
X59289D02*
X59203Y128319D01*
X58423Y127996D01*
X57754Y127482D01*
X57240Y126813D01*
X56917Y126033D01*
X56906Y125947D01*
X59289D01*
Y128331D01*
D02*
G37*
G36*
X63173Y124447D02*
X60789D01*
Y122063D01*
X60876Y122075D01*
X61656Y122397D01*
X62325Y122911D01*
X62839Y123581D01*
X63162Y124360D01*
X63173Y124447D01*
D02*
G37*
G36*
X59289D02*
X56906D01*
X56917Y124360D01*
X57240Y123581D01*
X57754Y122911D01*
X58423Y122397D01*
X59203Y122075D01*
X59289Y122063D01*
Y124447D01*
D02*
G37*
G36*
X73427Y115675D02*
Y112561D01*
X76542D01*
X76505Y112837D01*
X76109Y113793D01*
X75480Y114613D01*
X74659Y115243D01*
X73703Y115639D01*
X73427Y115675D01*
D02*
G37*
G36*
X71927D02*
X71652Y115639D01*
X70696Y115243D01*
X69875Y114613D01*
X69245Y113793D01*
X68849Y112837D01*
X68813Y112561D01*
X71927D01*
Y115675D01*
D02*
G37*
G36*
Y111061D02*
X68813D01*
X68849Y110785D01*
X69245Y109829D01*
X69875Y109009D01*
X70696Y108379D01*
X71652Y107983D01*
X71927Y107947D01*
Y111061D01*
D02*
G37*
G36*
X76542D02*
X73427D01*
Y107947D01*
X73703Y107983D01*
X74659Y108379D01*
X75480Y109009D01*
X76109Y109829D01*
X76505Y110785D01*
X76542Y111061D01*
D02*
G37*
G36*
X70435Y100549D02*
Y98388D01*
X72596D01*
X72593Y98417D01*
X72292Y99143D01*
X71813Y99766D01*
X71190Y100244D01*
X70464Y100545D01*
X70435Y100549D01*
D02*
G37*
G36*
X68935D02*
X68906Y100545D01*
X68180Y100244D01*
X67557Y99766D01*
X67078Y99143D01*
X66778Y98417D01*
X66774Y98388D01*
X68935D01*
Y100549D01*
D02*
G37*
G36*
X72596Y96888D02*
X70435D01*
Y94727D01*
X70464Y94730D01*
X71190Y95031D01*
X71813Y95509D01*
X72292Y96133D01*
X72593Y96859D01*
X72596Y96888D01*
D02*
G37*
G36*
X68935D02*
X66774D01*
X66778Y96859D01*
X67078Y96133D01*
X67557Y95509D01*
X68180Y95031D01*
X68906Y94730D01*
X68935Y94727D01*
Y96888D01*
D02*
G37*
%LPD*%
G36*
X81496Y47638D02*
X81496Y43277D01*
X76879Y39370D01*
X64961D01*
X60630Y35039D01*
X56299D01*
X54331Y37008D01*
X54331Y40157D01*
X56693Y42520D01*
X69685Y42520D01*
X76378Y49213D01*
X79921D01*
X81496Y47638D01*
D02*
G37*
%LPC*%
G36*
X78703Y48455D02*
Y46262D01*
X80896D01*
X80891Y46299D01*
X80587Y47033D01*
X80104Y47663D01*
X79474Y48146D01*
X78740Y48450D01*
X78703Y48455D01*
D02*
G37*
G36*
X77203D02*
X77166Y48450D01*
X76432Y48146D01*
X75802Y47663D01*
X75318Y47033D01*
X75015Y46299D01*
X75010Y46262D01*
X77203D01*
Y48455D01*
D02*
G37*
G36*
X80896Y44762D02*
X78703D01*
Y42569D01*
X78740Y42574D01*
X79474Y42878D01*
X80104Y43361D01*
X80587Y43991D01*
X80891Y44725D01*
X80896Y44762D01*
D02*
G37*
G36*
X77203D02*
X75010D01*
X75015Y44725D01*
X75318Y43991D01*
X75802Y43361D01*
X76432Y42878D01*
X77166Y42574D01*
X77203Y42569D01*
Y44762D01*
D02*
G37*
G36*
X59018Y41494D02*
Y39333D01*
X61179D01*
X61175Y39362D01*
X60874Y40088D01*
X60396Y40711D01*
X59773Y41189D01*
X59047Y41490D01*
X59018Y41494D01*
D02*
G37*
G36*
X57518D02*
X57489Y41490D01*
X56763Y41189D01*
X56139Y40711D01*
X55661Y40088D01*
X55360Y39362D01*
X55357Y39333D01*
X57518D01*
Y41494D01*
D02*
G37*
G36*
X61179Y37833D02*
X59018D01*
Y35671D01*
X59047Y35675D01*
X59773Y35976D01*
X60396Y36454D01*
X60874Y37078D01*
X61175Y37804D01*
X61179Y37833D01*
D02*
G37*
G36*
X57518D02*
X55357D01*
X55360Y37804D01*
X55661Y37078D01*
X56139Y36454D01*
X56763Y35976D01*
X57489Y35675D01*
X57518Y35671D01*
Y37833D01*
D02*
G37*
%LPD*%
D23*
X116929Y97638D02*
X144488D01*
X102756Y111811D02*
X116929Y97638D01*
X92677Y111811D02*
X102756D01*
X92677Y28898D02*
Y111811D01*
X80315Y16535D02*
X92677Y28898D01*
X71653Y16535D02*
X80315D01*
X52756Y26378D02*
X69291D01*
X41339Y37795D02*
Y38583D01*
Y25591D02*
Y37795D01*
X41350D01*
X42415Y36730D01*
Y36719D02*
Y36730D01*
Y36719D02*
X52756Y26378D01*
X71653Y16535D02*
Y24016D01*
X69291Y26378D02*
X71653Y24016D01*
X28346Y12598D02*
X41339Y25591D01*
X16535Y12598D02*
X28346D01*
D24*
X16535Y32283D02*
D03*
Y12598D02*
D03*
X51968Y16535D02*
D03*
X71653D02*
D03*
D25*
X77953Y65512D02*
D03*
Y55512D02*
D03*
Y45512D02*
D03*
D26*
X144882Y83465D02*
D03*
X70079D02*
D03*
X69685Y97638D02*
D03*
X144488D02*
D03*
X58268Y38583D02*
D03*
Y113386D02*
D03*
X41339Y113386D02*
D03*
Y38583D02*
D03*
D27*
X72677Y111811D02*
D03*
X82677D02*
D03*
X92677D02*
D03*
D28*
X130039Y119685D02*
D03*
X140039D02*
D03*
D29*
X60039Y125197D02*
D03*
X39961D02*
D03*
X50000D02*
D03*
D30*
X113779Y165748D02*
D03*
Y124409D02*
D03*
X98819Y124409D02*
D03*
Y165748D02*
D03*
X84646D02*
D03*
Y124409D02*
D03*
X71260Y124803D02*
D03*
Y166142D02*
D03*
M02*
