M48
;Layer_Color=9474304
;FILE_FORMAT=2:5
INCH,LZ
;TYPE=PLATED
T1F00S00C0.02480
T2F00S00C0.02520
T3F00S00C0.02756
T4F00S00C0.03071
T5F00S00C0.03661
T6F00S00C0.04331
T7F00S00C0.04740
%
T01
X0041339Y0038583
X0058268Y0038583
X0070079Y0083465
X0069685Y0097638
X0058268Y0113386
X0144488Y0097638
X0144882Y0083465
X0041339Y0113386
T02
X0077953Y0045512
Y0055512
Y0065512
T03
X0060039Y0125197
X005
X0039961
T04
X0130039Y0119685
X0140039
T05
X0072677Y0111811
X0082677
X0092677
T06
X0016535Y0012598
Y0032283
X0051968Y0016535
X0071653
T07
X007126Y0124803
X0084646Y0124409
X0098819
X0113779Y0124409
Y0165748
X0098819Y0165748
X0084646
X007126Y0166142
M30
