G04*
G04 #@! TF.GenerationSoftware,Altium Limited,Altium Designer,20.0.10 (225)*
G04*
G04 Layer_Color=2752767*
%FSLAX25Y25*%
%MOIN*%
G70*
G01*
G75*
%ADD32C,0.00200*%
%ADD33C,0.00267*%
D32*
X15735Y31484D02*
Y33084D01*
X17335D01*
Y31484D01*
X15735D01*
Y11798D02*
Y13398D01*
X17335D01*
Y11798D01*
X15735D01*
X51169Y15735D02*
Y17335D01*
X52768D01*
Y15735D01*
X51169D01*
X70854D02*
Y17335D01*
X72453D01*
Y15735D01*
X70854D01*
X144882Y82665D02*
X144082Y84265D01*
X145682D01*
X144882Y82665D01*
X70079D02*
X69279Y84265D01*
X70879D01*
X70079Y82665D01*
X69685Y96838D02*
X68885Y98438D01*
X70485D01*
X69685Y96838D01*
X144488D02*
X143688Y98438D01*
X145288D01*
X144488Y96838D01*
X72677Y111011D02*
X73077Y111411D01*
X73477D01*
X73077Y111811D01*
X73477Y112211D01*
X73077D01*
X72677Y112611D01*
X72277Y112211D01*
X71877D01*
X72277Y111811D01*
X71877Y111411D01*
X72277D01*
X72677Y111011D01*
X82677D02*
X83077Y111411D01*
X83477D01*
X83077Y111811D01*
X83477Y112211D01*
X83077D01*
X82677Y112611D01*
X82277Y112211D01*
X81877D01*
X82277Y111811D01*
X81877Y111411D01*
X82277D01*
X82677Y111011D01*
X92677D02*
X93077Y111411D01*
X93477D01*
X93077Y111811D01*
X93477Y112211D01*
X93077D01*
X92677Y112611D01*
X92277Y112211D01*
X91877D01*
X92277Y111811D01*
X91877Y111411D01*
X92277D01*
X92677Y111011D01*
X129239Y118885D02*
X129639Y119685D01*
X129239Y120485D01*
X130039Y120085D01*
X130839Y120485D01*
X130439Y119685D01*
X130839Y118885D01*
X130039Y119285D01*
X129239Y118885D01*
X139239D02*
X139639Y119685D01*
X139239Y120485D01*
X140039Y120085D01*
X140839Y120485D01*
X140439Y119685D01*
X140839Y118885D01*
X140039Y119285D01*
X139239Y118885D01*
X58268Y37783D02*
X57468Y39383D01*
X59068D01*
X58268Y37783D01*
Y112586D02*
X57468Y114186D01*
X59068D01*
X58268Y112586D01*
X41339Y112586D02*
X40539Y114186D01*
X42139D01*
X41339Y112586D01*
Y37783D02*
X40539Y39383D01*
X42139D01*
X41339Y37783D01*
X59639Y124797D02*
Y124397D01*
X60439D01*
Y124797D01*
X60839D01*
Y125597D01*
X60439D01*
Y125997D01*
X59639D01*
Y125597D01*
X59239D01*
Y124797D01*
X59639D01*
X39561D02*
Y124397D01*
X40361D01*
Y124797D01*
X40761D01*
Y125597D01*
X40361D01*
Y125997D01*
X39561D01*
Y125597D01*
X39161D01*
Y124797D01*
X39561D01*
X49600D02*
Y124397D01*
X50400D01*
Y124797D01*
X50800D01*
Y125597D01*
X50400D01*
Y125997D01*
X49600D01*
Y125597D01*
X49200D01*
Y124797D01*
X49600D01*
X112979Y164948D02*
X113380D01*
X113779Y165348D01*
X114180Y164948D01*
X114579D01*
Y165348D01*
X114180Y165748D01*
X114579Y166148D01*
Y166548D01*
X114180D01*
X113779Y166148D01*
X113380Y166548D01*
X112979D01*
Y166148D01*
X113380Y165748D01*
X112979Y165348D01*
Y164948D01*
Y123609D02*
X113380D01*
X113779Y124009D01*
X114180Y123609D01*
X114579D01*
Y124009D01*
X114180Y124409D01*
X114579Y124809D01*
Y125209D01*
X114180D01*
X113779Y124809D01*
X113380Y125209D01*
X112979D01*
Y124809D01*
X113380Y124409D01*
X112979Y124009D01*
Y123609D01*
X98019Y123609D02*
X98419D01*
X98819Y124009D01*
X99219Y123609D01*
X99619D01*
Y124009D01*
X99219Y124409D01*
X99619Y124809D01*
Y125209D01*
X99219D01*
X98819Y124809D01*
X98419Y125209D01*
X98019D01*
Y124809D01*
X98419Y124409D01*
X98019Y124009D01*
Y123609D01*
Y164948D02*
X98419D01*
X98819Y165348D01*
X99219Y164948D01*
X99619D01*
Y165348D01*
X99219Y165748D01*
X99619Y166148D01*
Y166548D01*
X99219D01*
X98819Y166148D01*
X98419Y166548D01*
X98019D01*
Y166148D01*
X98419Y165748D01*
X98019Y165348D01*
Y164948D01*
X83846D02*
X84246D01*
X84646Y165348D01*
X85046Y164948D01*
X85446D01*
Y165348D01*
X85046Y165748D01*
X85446Y166148D01*
Y166548D01*
X85046D01*
X84646Y166148D01*
X84246Y166548D01*
X83846D01*
Y166148D01*
X84246Y165748D01*
X83846Y165348D01*
Y164948D01*
Y123609D02*
X84246D01*
X84646Y124009D01*
X85046Y123609D01*
X85446D01*
Y124009D01*
X85046Y124409D01*
X85446Y124809D01*
Y125209D01*
X85046D01*
X84646Y124809D01*
X84246Y125209D01*
X83846D01*
Y124809D01*
X84246Y124409D01*
X83846Y124009D01*
Y123609D01*
X70460Y124003D02*
X70860D01*
X71260Y124403D01*
X71660Y124003D01*
X72060D01*
Y124403D01*
X71660Y124803D01*
X72060Y125203D01*
Y125603D01*
X71660D01*
X71260Y125203D01*
X70860Y125603D01*
X70460D01*
Y125203D01*
X70860Y124803D01*
X70460Y124403D01*
Y124003D01*
Y165342D02*
X70860D01*
X71260Y165742D01*
X71660Y165342D01*
X72060D01*
Y165742D01*
X71660Y166142D01*
X72060Y166542D01*
Y166942D01*
X71660D01*
X71260Y166542D01*
X70860Y166942D01*
X70460D01*
Y166542D01*
X70860Y166142D01*
X70460Y165742D01*
Y165342D01*
D33*
X78753Y65512D02*
G03*
X78753Y65512I-800J0D01*
G01*
Y55512D02*
G03*
X78753Y55512I-800J0D01*
G01*
Y45512D02*
G03*
X78753Y45512I-800J0D01*
G01*
M02*
