G04*
G04 #@! TF.GenerationSoftware,Altium Limited,Altium Designer,20.0.10 (225)*
G04*
G04 Layer_Physical_Order=2*
G04 Layer_Color=16711680*
%FSLAX25Y25*%
%MOIN*%
G70*
G01*
G75*
%ADD23C,0.01100*%
%ADD24C,0.06929*%
%ADD25C,0.04031*%
%ADD26C,0.03969*%
%ADD27C,0.05858*%
%ADD28C,0.04913*%
%ADD29C,0.04409*%
%ADD30O,0.07583X0.07584*%
G36*
X77165Y128346D02*
Y121653D01*
X81890Y116929D01*
X85433Y116929D01*
X87401Y114961D01*
X87402Y103639D01*
X84829Y97427D01*
X73622Y86221D01*
X73622Y81496D01*
X72047Y79921D01*
X68110D01*
X66535Y81496D01*
Y85827D01*
X68110Y87402D01*
X70866D01*
X79528Y96063D01*
X77953Y105118D01*
X78347Y115748D01*
X75590Y118504D01*
X68110Y118504D01*
X65354Y121260D01*
Y128347D01*
X67716Y130709D01*
X74803Y130709D01*
X77165Y128346D01*
D02*
G37*
G36*
X142520Y85921D02*
X142520Y81890D01*
X143307Y81102D01*
X146850Y81102D01*
X147244Y81496D01*
X147244Y85433D01*
X146756Y85921D01*
X142520Y85921D01*
D02*
G37*
G36*
X138583Y123622D02*
X136614Y121653D01*
Y118110D01*
X139764Y114961D01*
X140551D01*
X143701Y118110D01*
Y121653D01*
X141732Y123622D01*
X138583D01*
D02*
G37*
%LPC*%
G36*
X72010Y129538D02*
Y125553D01*
X75994D01*
X75928Y126055D01*
X75445Y127220D01*
X74677Y128221D01*
X73676Y128989D01*
X72511Y129472D01*
X72010Y129538D01*
D02*
G37*
G36*
X70510D02*
X70009Y129472D01*
X68844Y128989D01*
X67843Y128221D01*
X67075Y127220D01*
X66592Y126055D01*
X66526Y125553D01*
X70510D01*
Y129538D01*
D02*
G37*
G36*
X75994Y124053D02*
X72010D01*
Y120068D01*
X72511Y120134D01*
X73676Y120617D01*
X74677Y121385D01*
X75445Y122386D01*
X75928Y123552D01*
X75994Y124053D01*
D02*
G37*
G36*
X70510D02*
X66526D01*
X66592Y123552D01*
X67075Y122386D01*
X67843Y121385D01*
X68844Y120617D01*
X70009Y120134D01*
X70510Y120068D01*
Y124053D01*
D02*
G37*
G36*
X83427Y115675D02*
Y112561D01*
X86541D01*
X86505Y112837D01*
X86109Y113793D01*
X85479Y114613D01*
X84659Y115243D01*
X83703Y115639D01*
X83427Y115675D01*
D02*
G37*
G36*
X81927D02*
X81652Y115639D01*
X80696Y115243D01*
X79875Y114613D01*
X79245Y113793D01*
X78849Y112837D01*
X78813Y112561D01*
X81927D01*
Y115675D01*
D02*
G37*
G36*
Y111061D02*
X78813D01*
X78849Y110785D01*
X79245Y109829D01*
X79875Y109009D01*
X80696Y108379D01*
X81652Y107983D01*
X81927Y107947D01*
Y111061D01*
D02*
G37*
G36*
X86541D02*
X83427D01*
Y107947D01*
X83703Y107983D01*
X84659Y108379D01*
X85479Y109009D01*
X86109Y109829D01*
X86505Y110785D01*
X86541Y111061D01*
D02*
G37*
G36*
X70829Y86376D02*
Y84215D01*
X72990D01*
X72986Y84244D01*
X72685Y84970D01*
X72207Y85593D01*
X71584Y86071D01*
X70858Y86372D01*
X70829Y86376D01*
D02*
G37*
G36*
X69329D02*
X69300Y86372D01*
X68574Y86071D01*
X67950Y85593D01*
X67472Y84970D01*
X67171Y84244D01*
X67168Y84215D01*
X69329D01*
Y86376D01*
D02*
G37*
G36*
X72990Y82715D02*
X70829D01*
Y80553D01*
X70858Y80557D01*
X71584Y80858D01*
X72207Y81336D01*
X72685Y81960D01*
X72986Y82686D01*
X72990Y82715D01*
D02*
G37*
G36*
X69329D02*
X67168D01*
X67171Y82686D01*
X67472Y81960D01*
X67950Y81336D01*
X68574Y80858D01*
X69300Y80557D01*
X69329Y80553D01*
Y82715D01*
D02*
G37*
%LPD*%
D23*
X135433Y92913D02*
X144882Y83465D01*
X135433Y92913D02*
Y103150D01*
X140039Y107756D01*
Y119685D01*
D24*
X16535Y32283D02*
D03*
Y12598D02*
D03*
X51968Y16535D02*
D03*
X71653D02*
D03*
D25*
X77953Y65512D02*
D03*
Y55512D02*
D03*
Y45512D02*
D03*
D26*
X144882Y83465D02*
D03*
X70079D02*
D03*
X69685Y97638D02*
D03*
X144488D02*
D03*
X58268Y38583D02*
D03*
Y113386D02*
D03*
X41339Y113386D02*
D03*
Y38583D02*
D03*
D27*
X72677Y111811D02*
D03*
X82677D02*
D03*
X92677D02*
D03*
D28*
X130039Y119685D02*
D03*
X140039D02*
D03*
D29*
X60039Y125197D02*
D03*
X39961D02*
D03*
X50000D02*
D03*
D30*
X113779Y165748D02*
D03*
Y124409D02*
D03*
X98819Y124409D02*
D03*
Y165748D02*
D03*
X84646D02*
D03*
Y124409D02*
D03*
X71260Y124803D02*
D03*
Y166142D02*
D03*
M02*
